<?xml version="1.0" standalone="no"?>
<!DOCTYPE svg PUBLIC "-//W3C//DTD SVG 20010904//EN"
 "http://www.w3.org/TR/2001/REC-SVG-20010904/DTD/svg10.dtd">
<svg version="1.0" xmlns="http://www.w3.org/2000/svg"
 width="500.000000pt" height="500.000000pt" viewBox="0 0 500.000000 500.000000"
 preserveAspectRatio="xMidYMid meet">
<metadata>
Created by potrace 1.14, written by Peter Selinger 2001-2017
</metadata>
<g transform="translate(0.000000,500.000000) scale(0.100000,-0.100000)"
fill="#000000" stroke="none">
<path d="M2116 4481 c-1 -3 -2 -59 -1 -123 1 -75 -3 -119 -9 -121 -6 -2 -64
-2 -128 -2 -76 1 -118 -2 -121 -9 -2 -6 -3 -118 -2 -248 l0 -236 -25 -5 c-14
-2 -131 -3 -260 -3 l-236 1 1 -119 c0 -103 -2 -119 -17 -125 -10 -3 -108 -6
-218 -6 -130 0 -200 -3 -200 -10 0 -7 -3 -7 -8 0 -4 6 -23 11 -43 11 l-36 0 0
-242 c0 -133 -3 -246 -6 -251 -3 -5 -120 -8 -261 -8 l-255 0 0 -243 c0 -133
-3 -246 -6 -251 -3 -6 -16 -8 -30 -5 -13 2 -27 0 -30 -6 -4 -6 -11 -7 -17 -4
-15 9 -158 11 -158 2 0 -4 -6 -5 -12 -3 -10 4 -13 -31 -11 -159 1 -91 2 -184
3 -208 1 -24 1 -47 0 -53 -2 -11 -1 -210 1 -222 1 -5 1 -12 0 -18 -5 -23 -1
-217 4 -225 3 -5 2 -11 -2 -13 -5 -3 -7 -25 -5 -49 l4 -43 81 0 c46 1 89 5 96
10 9 5 12 4 7 -3 -4 -7 4 -10 27 -8 24 3 37 -2 45 -15 7 -11 8 -20 2 -24 -5
-3 -7 -11 -4 -18 2 -7 6 -166 7 -353 l2 -339 153 0 c84 -1 156 3 158 7 3 5 11
5 17 1 17 -10 377 -11 384 0 2 4 11 3 19 -4 7 -6 20 -9 27 -6 12 4 14 52 15
252 0 207 -2 246 -14 241 -8 -3 -14 -2 -14 2 0 4 -52 6 -115 5 l-115 -2 -1 42
c-4 159 -3 193 6 202 14 15 496 15 510 1 6 -7 10 -105 10 -251 l0 -240 124 0
c143 0 138 3 135 -96 -1 -38 2 -59 10 -59 8 0 8 -2 0 -8 -14 -9 -14 -75 0 -84
17 -12 28 -9 20 5 -6 9 -5 9 7 0 15 -12 36 -13 55 0 6 3 14 3 18 -1 10 -10
176 -10 182 0 3 4 11 5 17 1 17 -10 197 -11 203 -1 8 13 7 435 0 447 -4 6 -2
11 3 11 6 0 10 3 10 8 -4 25 8 28 131 27 83 0 130 3 130 10 0 7 3 7 8 0 4 -6
52 -10 112 -10 115 1 143 -3 134 -16 -3 -5 0 -9 6 -9 6 0 8 -5 4 -11 -9 -16
-11 -110 -1 -116 4 -2 5 -9 1 -14 -10 -17 -12 -59 -2 -59 5 0 4 -9 -2 -20 -8
-14 -8 -20 0 -20 6 0 8 -5 4 -12 -9 -14 -10 -69 -1 -91 3 -9 2 -19 -4 -22 -5
-4 -6 -11 -2 -18 3 -6 6 -29 4 -51 l-2 -41 58 0 c32 0 63 3 70 8 6 4 14 4 16
0 3 -5 88 -8 189 -8 l183 0 0 373 c0 204 2 373 5 373 3 1 354 3 780 4 426 2
779 3 784 4 5 1 3 7 -3 15 -9 10 -9 16 -1 21 8 5 8 11 -1 21 -6 8 -7 14 -2 14
10 0 10 46 0 56 -3 3 -2 17 3 30 6 16 6 24 -1 24 -6 0 -6 6 -1 17 5 10 7 23 5
30 -5 13 22 22 57 19 14 -2 31 1 38 7 8 6 12 6 12 0 0 -12 49 -11 68 0 6 5 12
4 12 -1 0 -4 15 -8 34 -8 19 0 33 2 31 4 -2 2 1 17 5 33 6 19 5 29 -2 29 -7 0
-7 4 0 12 14 18 15 20 3 49 -5 15 -7 30 -4 33 8 8 8 68 0 89 -3 9 -2 19 2 21
9 6 7 49 -3 65 -4 5 -2 12 4 16 7 4 7 12 0 24 -5 10 -7 21 -3 25 3 3 6 25 6
48 0 51 -6 53 -148 52 -91 0 -101 2 -111 20 -6 12 -8 25 -5 31 9 17 8 45 -3
45 -6 0 -6 4 1 11 8 8 8 20 2 36 -5 14 -5 22 0 19 5 -4 6 9 1 29 -5 22 -4 35
2 35 7 0 6 5 -1 13 -9 12 -53 15 -86 7 -5 -1 -12 -1 -15 0 -14 6 -130 4 -130
-2 0 -4 -6 -5 -13 -3 -9 4 -12 -23 -12 -117 l0 -123 -127 -1 c-107 -1 -128 2
-134 15 -10 22 -10 42 -2 74 3 15 4 27 0 27 -4 0 -7 16 -7 35 0 19 3 35 6 35
11 0 4 45 -9 55 -10 8 -91 10 -177 5 -5 -1 -22 1 -37 3 -15 2 -29 -1 -31 -7
-2 -6 -4 -60 -3 -119 1 -88 -2 -110 -14 -117 -8 -4 -52 -7 -98 -6 -49 1 -82
-3 -82 -9 0 -5 -4 -4 -9 4 -6 9 -11 10 -15 2 -5 -7 -14 -6 -29 4 -21 13 -22
21 -21 125 1 61 -3 110 -8 110 -5 0 -7 4 -4 8 2 4 -23 7 -57 5 -72 -4 -72 -4
-117 -2 -71 3 -69 6 -67 -71 1 -39 -2 -70 -6 -70 -5 0 -5 -5 -1 -12 4 -6 7
-30 7 -52 l0 -41 -131 -1 c-72 -1 -129 3 -126 7 3 5 1 9 -3 9 -5 0 -9 50 -8
111 1 68 -3 113 -9 117 -17 10 -56 10 -56 0 0 -5 -5 -6 -12 -2 -18 12 -132 11
-140 -1 -5 -6 -8 -6 -8 2 0 6 -9 9 -20 6 -11 -3 -17 -10 -14 -15 6 -9 6 -126
1 -208 l-2 -25 -120 -1 c-66 0 -125 1 -131 3 -7 3 -10 44 -10 119 1 64 -3 119
-8 122 -17 10 -166 8 -166 -3 0 -7 -3 -7 -8 0 -4 6 -22 10 -40 10 -25 -1 -33
3 -37 19 -2 12 -3 125 -2 251 l2 230 128 3 c132 3 135 2 128 -40 0 -5 3 -8 9
-8 6 0 6 -9 1 -22 -5 -13 -5 -32 -1 -43 4 -11 4 -27 -1 -36 -5 -9 -5 -19 -2
-23 4 -4 6 -22 5 -41 -2 -32 0 -35 25 -36 15 0 45 -1 66 -3 20 -2 37 1 37 6 0
5 7 5 17 -1 10 -5 26 -5 40 0 14 5 23 5 23 -1 0 -6 9 -6 23 -1 21 8 22 14 23
117 1 60 2 114 3 121 1 8 38 11 126 12 111 0 126 -2 135 -18 5 -10 6 -21 3
-25 -9 -9 -11 -46 -3 -51 7 -5 4 -97 -5 -125 -5 -15 -1 -20 17 -24 13 -3 35
-7 51 -11 16 -3 27 -1 27 5 0 7 6 8 17 1 10 -5 26 -5 40 0 14 5 23 5 23 -1 0
-5 12 -5 30 0 17 5 30 5 30 1 0 -4 6 -8 13 -8 10 0 13 27 12 115 0 62 3 116 8
119 4 2 5 8 2 13 -9 14 235 12 248 -3 14 -15 16 -167 2 -167 -5 0 -4 -5 2 -11
6 -6 9 -18 6 -25 -9 -24 16 -44 42 -34 15 6 25 5 27 -1 2 -7 12 -7 31 0 15 6
27 7 27 3 0 -6 94 -7 110 -1 3 1 8 1 11 1 4 -1 6 53 5 118 -1 99 2 121 14 125
32 10 250 3 251 -9 1 -6 2 -60 3 -120 1 -99 3 -110 21 -116 11 -4 30 -4 43 1
12 5 22 5 22 1 0 -4 37 -7 83 -7 l82 1 5 124 c3 86 9 125 17 125 6 0 14 3 18
6 3 4 17 4 30 0 13 -3 62 -5 108 -3 74 3 86 6 90 23 3 10 1 19 -5 19 -5 0 -6
5 -3 11 10 15 12 80 3 86 -5 2 -5 10 -1 16 11 18 11 47 -1 47 -6 0 -6 4 1 11
6 6 9 18 6 27 -4 9 -2 13 3 9 6 -3 16 -2 23 2 7 5 30 5 52 1 21 -4 39 -4 39 1
0 5 11 4 25 -1 16 -6 25 -6 25 0 0 6 9 6 23 1 14 -5 30 -5 40 0 9 6 17 6 18 2
1 -4 4 3 8 17 4 14 4 35 0 46 -4 12 -5 25 -2 28 5 5 7 68 4 132 -1 20 -6 21
-113 19 -134 -2 -148 1 -143 26 2 10 0 21 -5 24 -6 3 -5 16 0 30 6 16 6 25 -1
25 -6 0 -6 7 -2 18 10 21 9 64 -2 82 -6 9 -4 11 4 5 10 -6 11 -3 2 12 -6 11
-8 22 -6 25 2 2 -52 4 -120 3 -106 -1 -126 2 -130 15 -7 24 -9 130 -1 137 3 3
1 12 -5 19 -7 8 -7 19 -1 31 5 10 7 25 3 33 -5 13 -28 15 -131 15 l-125 0 0
-117 c-1 -65 -4 -121 -9 -125 -10 -10 -1026 -10 -1026 0 0 4 -3 6 -8 3 -4 -2
-7 50 -7 117 l0 121 -112 2 c-71 1 -111 -2 -107 -8 3 -5 -3 -4 -15 4 -25 15
-23 7 -26 128 -1 52 -3 102 -4 111 -1 13 -18 15 -116 15 -63 -1 -115 2 -115 6
0 5 -6 7 -12 6 -10 -2 -13 27 -13 117 l-1 120 -162 1 c-108 1 -159 -2 -155 -9
4 -6 1 -7 -8 -1 -15 10 -188 14 -193 5z"/>
</g>
</svg>
